<?xml version="1.0" encoding="UTF-8" standalone="no"?><!DOCTYPE svg PUBLIC "-//W3C//DTD SVG 1.1//EN" "http://www.w3.org/Graphics/SVG/1.1/DTD/svg11.dtd"><!-- Generated by graphviz version 2.40.1 (20161225.0304)
 --><!-- Title: G Pages: 1 --><svg xmlns="http://www.w3.org/2000/svg" xmlns:xlink="http://www.w3.org/1999/xlink" width="787pt" height="412pt" viewBox="0.00 0.00 786.83 411.71">
<g id="graph0" class="graph" transform="scale(1 1) rotate(0) translate(4 407.7132)">
<title>G</title>
<polygon fill="#ffffff" stroke="transparent" points="-4,4 -4,-407.7132 782.8313,-407.7132 782.8313,4 -4,4"/>
<!-- A&lt;B&lt;C&lt;D&lt;E -->
<g id="node1" class="node">
<title>A&lt;B&lt;C&lt;D&lt;E</title>
<ellipse fill="none" stroke="#ffffff" cx="425.4157" cy="-54.7132" rx="54.9272" ry="54.9272"/>
<text text-anchor="middle" x="425.4157" y="-50.5132" font-family="Times,serif" font-size="14.00" fill="#000000">A&lt;B&lt;C&lt;D&lt;E</text>
</g>
<g id="node2" class="node">
<title/>
<ellipse fill="none" stroke="#000000" stroke-dasharray="5,2" cx="425.4157" cy="-378.7132" rx="25" ry="25"/>
</g>
<!-- 0 -->
<g id="node3" class="node">
<title>0</title>
<ellipse fill="none" stroke="#000000" stroke-dasharray="5,2" cx="245.4156" cy="-306.7132" rx="25" ry="25"/>
<text text-anchor="middle" x="245.4156" y="-302.5132" font-family="Times,serif" font-size="14.00" fill="#000000">0</text>
</g>
<!-- &#45;&gt;0 -->
<g id="edge1" class="edge">
<title>-&gt;0</title>
<path fill="none" stroke="#000000" stroke-dasharray="5,2" d="M401.8838,-369.3005C370.2644,-356.6527 313.9143,-334.1127 278.1667,-319.8136"/>
<polygon fill="#000000" stroke="#000000" points="279.2527,-316.4784 268.668,-316.0141 276.6529,-322.9778 279.2527,-316.4784"/>
<text text-anchor="middle" x="336.5252" y="-348.757" font-family="Times,serif" font-size="14.00" fill="#000000">0</text>
</g>
<!-- 1 -->
<g id="node4" class="node">
<title>1</title>
<ellipse fill="none" stroke="#000000" stroke-dasharray="5,2" cx="605.4156" cy="-306.7132" rx="25" ry="25"/>
<text text-anchor="middle" x="605.4156" y="-302.5132" font-family="Times,serif" font-size="14.00" fill="#000000">1</text>
</g>
<!-- &#45;&gt;1 -->
<g id="edge2" class="edge">
<title>-&gt;1</title>
<path fill="none" stroke="#000000" stroke-dasharray="5,2" d="M448.9475,-369.3005C480.5669,-356.6527 536.917,-334.1127 572.6646,-319.8136"/>
<polygon fill="#000000" stroke="#000000" points="574.1784,-322.9778 582.1632,-316.0141 571.5786,-316.4784 574.1784,-322.9778"/>
<text text-anchor="middle" x="507.306" y="-348.757" font-family="Times,serif" font-size="14.00" fill="#000000">1</text>
</g>
<!-- 00 -->
<g id="node5" class="node">
<title>00</title>
<ellipse fill="none" stroke="#000000" stroke-dasharray="5,2" cx="173.4156" cy="-234.7132" rx="25" ry="25"/>
<text text-anchor="middle" x="173.4156" y="-230.5132" font-family="Times,serif" font-size="14.00" fill="#000000">00</text>
</g>
<!-- 0&#45;&gt;00 -->
<g id="edge3" class="edge">
<title>0-&gt;00</title>
<path fill="none" stroke="#000000" stroke-dasharray="5,2" d="M227.6179,-288.9154C218.7909,-280.0884 207.9825,-269.2801 198.3463,-259.6439"/>
<polygon fill="#000000" stroke="#000000" points="200.8042,-257.1519 191.2582,-252.5557 195.8544,-262.1017 200.8042,-257.1519"/>
<text text-anchor="middle" x="209.4821" y="-278.4797" font-family="Times,serif" font-size="14.00" fill="#000000">0</text>
</g>
<!-- 01 -->
<g id="node6" class="node">
<title>01</title>
<ellipse fill="none" stroke="#000000" stroke-dasharray="5,2" cx="389.4156" cy="-234.7132" rx="25" ry="25"/>
<text text-anchor="middle" x="389.4156" y="-230.5132" font-family="Times,serif" font-size="14.00" fill="#000000">01</text>
</g>
<!-- 0&#45;&gt;01 -->
<g id="edge4" class="edge">
<title>0-&gt;01</title>
<path fill="none" stroke="#000000" stroke-dasharray="5,2" d="M267.9156,-295.4632C291.9736,-283.4342 330.3227,-264.2597 357.4951,-250.6735"/>
<polygon fill="#000000" stroke="#000000" points="359.2194,-253.7245 366.5984,-246.1218 356.0889,-247.4635 359.2194,-253.7245"/>
<text text-anchor="middle" x="309.2054" y="-277.2683" font-family="Times,serif" font-size="14.00" fill="#000000">1</text>
</g>
<!-- 10 -->
<g id="node7" class="node">
<title>10</title>
<ellipse fill="none" stroke="#000000" stroke-dasharray="5,2" cx="533.4157" cy="-234.7132" rx="25" ry="25"/>
<text text-anchor="middle" x="533.4157" y="-230.5132" font-family="Times,serif" font-size="14.00" fill="#000000">10</text>
</g>
<!-- 1&#45;&gt;10 -->
<g id="edge5" class="edge">
<title>1-&gt;10</title>
<path fill="none" stroke="#000000" stroke-dasharray="5,2" d="M587.6179,-288.9154C578.7909,-280.0884 567.9825,-269.2801 558.3463,-259.6439"/>
<polygon fill="#000000" stroke="#000000" points="560.8042,-257.1519 551.2582,-252.5557 555.8544,-262.1017 560.8042,-257.1519"/>
<text text-anchor="middle" x="569.4821" y="-278.4797" font-family="Times,serif" font-size="14.00" fill="#000000">0</text>
</g>
<!-- 11 -->
<g id="node8" class="node">
<title>11</title>
<ellipse fill="none" stroke="#000000" stroke-dasharray="5,2" cx="677.4156" cy="-234.7132" rx="25" ry="25"/>
<text text-anchor="middle" x="677.4156" y="-230.5132" font-family="Times,serif" font-size="14.00" fill="#000000">11</text>
</g>
<!-- 1&#45;&gt;11 -->
<g id="edge6" class="edge">
<title>1-&gt;11</title>
<path fill="none" stroke="#000000" stroke-dasharray="5,2" d="M623.2134,-288.9154C632.0404,-280.0884 642.8488,-269.2801 652.485,-259.6439"/>
<polygon fill="#000000" stroke="#000000" points="654.9769,-262.1017 659.5731,-252.5557 650.0271,-257.1519 654.9769,-262.1017"/>
<text text-anchor="middle" x="634.3492" y="-278.4797" font-family="Times,serif" font-size="14.00" fill="#000000">1</text>
</g>
<!-- 000 -->
<g id="node9" class="node">
<title>000</title>
<ellipse fill="none" stroke="#000000" cx="29.4156" cy="-126.7132" rx="29.3315" ry="29.3315"/>
<text text-anchor="middle" x="29.4156" y="-130.9132" font-family="Times,serif" font-size="14.00" fill="#000000">000</text>
<text text-anchor="middle" x="29.4156" y="-114.1132" font-family="Times,serif" font-size="14.00" fill="#000000">A</text>
</g>
<!-- 00&#45;&gt;000 -->
<g id="edge7" class="edge">
<title>00-&gt;000</title>
<path fill="none" stroke="#000000" stroke-dasharray="5,2" d="M153.3931,-219.6963C129.5812,-201.8374 89.5286,-171.7979 61.4067,-150.7065"/>
<polygon fill="#000000" stroke="#000000" points="63.1935,-147.6716 53.0935,-144.4716 58.9935,-153.2716 63.1935,-147.6716"/>
<text text-anchor="middle" x="103.8999" y="-189.4014" font-family="Times,serif" font-size="14.00" fill="#000000">0</text>
</g>
<!-- 001 -->
<g id="node10" class="node">
<title>001</title>
<ellipse fill="none" stroke="#000000" cx="173.4156" cy="-126.7132" rx="29.3315" ry="29.3315"/>
<text text-anchor="middle" x="173.4156" y="-130.9132" font-family="Times,serif" font-size="14.00" fill="#000000">001</text>
<text text-anchor="middle" x="173.4156" y="-114.1132" font-family="Times,serif" font-size="14.00" fill="#000000">B</text>
</g>
<!-- 00&#45;&gt;001 -->
<g id="edge8" class="edge">
<title>00-&gt;001</title>
<path fill="none" stroke="#000000" stroke-dasharray="5,2" d="M173.4156,-209.6644C173.4156,-196.8279 173.4156,-180.8926 173.4156,-166.43"/>
<polygon fill="#000000" stroke="#000000" points="176.9157,-166.2246 173.4156,-156.2247 169.9157,-166.2247 176.9157,-166.2246"/>
<text text-anchor="middle" x="169.9156" y="-192.2472" font-family="Times,serif" font-size="14.00" fill="#000000">1</text>
</g>
<!-- 010 -->
<g id="node11" class="node">
<title>010</title>
<ellipse fill="none" stroke="#000000" cx="317.4157" cy="-126.7132" rx="29.3315" ry="29.3315"/>
<text text-anchor="middle" x="317.4157" y="-130.9132" font-family="Times,serif" font-size="14.00" fill="#000000">010</text>
<text text-anchor="middle" x="317.4157" y="-114.1132" font-family="Times,serif" font-size="14.00" fill="#000000">C</text>
</g>
<!-- 01&#45;&gt;010 -->
<g id="edge9" class="edge">
<title>01-&gt;010</title>
<path fill="none" stroke="#000000" stroke-dasharray="5,2" d="M375.5333,-213.8897C365.279,-198.5082 351.1158,-177.2634 339.3384,-159.5974"/>
<polygon fill="#000000" stroke="#000000" points="342.2353,-157.6329 333.7761,-151.2538 336.4109,-161.5158 342.2353,-157.6329"/>
<text text-anchor="middle" x="353.9359" y="-190.9435" font-family="Times,serif" font-size="14.00" fill="#000000">0</text>
</g>
<!-- 100 -->
<g id="node12" class="node">
<title>100</title>
<ellipse fill="none" stroke="#000000" cx="461.4157" cy="-126.7132" rx="29.3315" ry="29.3315"/>
<text text-anchor="middle" x="461.4157" y="-130.9132" font-family="Times,serif" font-size="14.00" fill="#000000">100</text>
<text text-anchor="middle" x="461.4157" y="-114.1132" font-family="Times,serif" font-size="14.00" fill="#000000">D</text>
</g>
<!-- 10&#45;&gt;100 -->
<g id="edge10" class="edge">
<title>10-&gt;100</title>
<path fill="none" stroke="#000000" stroke-dasharray="5,2" d="M519.5333,-213.8897C509.279,-198.5082 495.1158,-177.2634 483.3384,-159.5974"/>
<polygon fill="#000000" stroke="#000000" points="486.2353,-157.6329 477.7761,-151.2538 480.4109,-161.5158 486.2353,-157.6329"/>
<text text-anchor="middle" x="497.9359" y="-190.9435" font-family="Times,serif" font-size="14.00" fill="#000000">0</text>
</g>
<!-- 111 -->
<g id="node13" class="node">
<title>111</title>
<ellipse fill="none" stroke="#000000" cx="749.4156" cy="-126.7132" rx="29.3315" ry="29.3315"/>
<text text-anchor="middle" x="749.4156" y="-130.9132" font-family="Times,serif" font-size="14.00" fill="#000000">111</text>
<text text-anchor="middle" x="749.4156" y="-114.1132" font-family="Times,serif" font-size="14.00" fill="#000000">E</text>
</g>
<!-- 11&#45;&gt;111 -->
<g id="edge11" class="edge">
<title>11-&gt;111</title>
<path fill="none" stroke="#000000" stroke-dasharray="5,2" d="M691.298,-213.8897C701.5523,-198.5082 715.7155,-177.2634 727.4929,-159.5974"/>
<polygon fill="#000000" stroke="#000000" points="730.4204,-161.5158 733.0552,-151.2538 724.596,-157.6329 730.4204,-161.5158"/>
<text text-anchor="middle" x="705.8954" y="-190.9435" font-family="Times,serif" font-size="14.00" fill="#000000">1</text>
</g>
<!-- 000&#45;&gt;001 -->
<g id="edge12" class="edge">
<title>000-&gt;001</title>
<path fill="none" stroke="#000000" d="M58.5562,-132.2618C80.319,-133.658 110.2957,-133.8372 134.1679,-132.7996"/>
<polygon fill="#000000" stroke="#000000" points="134.5187,-136.286 144.3184,-132.259 134.1464,-129.2959 134.5187,-136.286"/>
<text text-anchor="middle" x="84.3094" y="-136.7307" font-family="Times,serif" font-size="14.00" fill="#000000">next</text>
</g>
<!-- 001&#45;&gt;000 -->
<g id="edge13" class="edge">
<title>001-&gt;000</title>
<path fill="none" stroke="#000000" d="M144.2751,-121.1645C122.5123,-119.7684 92.5356,-119.5891 68.6634,-120.6267"/>
<polygon fill="#000000" stroke="#000000" points="68.3125,-117.1404 58.5129,-121.1673 68.6849,-124.1305 68.3125,-117.1404"/>
<text text-anchor="middle" x="94.0316" y="-108.2956" font-family="Times,serif" font-size="14.00" fill="#000000">prev</text>
</g>
<!-- 001&#45;&gt;010 -->
<g id="edge14" class="edge">
<title>001-&gt;010</title>
<path fill="none" stroke="#000000" d="M202.5562,-132.2618C224.319,-133.658 254.2957,-133.8372 278.1679,-132.7996"/>
<polygon fill="#000000" stroke="#000000" points="278.5188,-136.286 288.3184,-132.259 278.1464,-129.2959 278.5188,-136.286"/>
<text text-anchor="middle" x="228.3095" y="-136.7307" font-family="Times,serif" font-size="14.00" fill="#000000">next</text>
</g>
<!-- 010&#45;&gt;001 -->
<g id="edge15" class="edge">
<title>010-&gt;001</title>
<path fill="none" stroke="#000000" d="M288.2751,-121.1645C266.5123,-119.7684 236.5356,-119.5891 212.6634,-120.6267"/>
<polygon fill="#000000" stroke="#000000" points="212.3125,-117.1404 202.5129,-121.1673 212.6849,-124.1305 212.3125,-117.1404"/>
<text text-anchor="middle" x="238.0316" y="-108.2956" font-family="Times,serif" font-size="14.00" fill="#000000">prev</text>
</g>
<!-- 010&#45;&gt;100 -->
<g id="edge16" class="edge">
<title>010-&gt;100</title>
<path fill="none" stroke="#000000" d="M346.5562,-132.2618C368.319,-133.658 398.2957,-133.8372 422.1679,-132.7996"/>
<polygon fill="#000000" stroke="#000000" points="422.5188,-136.286 432.3184,-132.259 422.1464,-129.2959 422.5188,-136.286"/>
<text text-anchor="middle" x="372.3095" y="-136.7307" font-family="Times,serif" font-size="14.00" fill="#000000">next</text>
</g>
<!-- 100&#45;&gt;010 -->
<g id="edge17" class="edge">
<title>100-&gt;010</title>
<path fill="none" stroke="#000000" d="M432.2751,-121.1645C410.5123,-119.7684 380.5356,-119.5891 356.6634,-120.6267"/>
<polygon fill="#000000" stroke="#000000" points="356.3125,-117.1404 346.5129,-121.1673 356.6849,-124.1305 356.3125,-117.1404"/>
<text text-anchor="middle" x="406.9068" y="-125.0956" font-family="Times,serif" font-size="14.00" fill="#000000">prev</text>
</g>
<!-- 100&#45;&gt;111 -->
<g id="edge18" class="edge">
<title>100-&gt;111</title>
<path fill="none" stroke="#000000" d="M490.6155,-130.9887C542.5807,-134.0933 651.1458,-134.2765 709.7935,-131.5385"/>
<polygon fill="#000000" stroke="#000000" points="710.3366,-135.0148 720.1385,-130.9933 709.9681,-128.0245 710.3366,-135.0148"/>
<text text-anchor="middle" x="588.1519" y="-135.4636" font-family="Times,serif" font-size="14.00" fill="#000000">next</text>
</g>
<!-- 111&#45;&gt;100 -->
<g id="edge19" class="edge">
<title>111-&gt;100</title>
<path fill="none" stroke="#000000" d="M720.2158,-122.4377C668.2506,-119.3331 559.6854,-119.1499 501.0378,-121.8879"/>
<polygon fill="#000000" stroke="#000000" points="500.4947,-118.4115 490.6928,-122.4331 500.8632,-125.4018 500.4947,-118.4115"/>
<text text-anchor="middle" x="598.1892" y="-109.5628" font-family="Times,serif" font-size="14.00" fill="#000000">prev</text>
</g>
</g>
</svg>